<svg xmlns="http://www.w3.org/2000/svg" width="720" height="480" viewBox="0 0 720 480" role="img" aria-label="Collections"><title>Collections</title><rect x="0" y="0" width="720" height="480" fill="none" /><g font-family="IBM Plex Sans, system-ui" fill="#f4f4f4"><text x="24" y="28" font-size="18" font-weight="600">Collections</text><text x="24" y="63.4" font-size="12">Core</text><rect x="180" y="48" width="516.0" height="22" rx="4" fill="#78a9ff"/><text x="702.0" y="63.4" font-size="12">14</text><text x="24" y="93.4" font-size="12">Context</text><rect x="180" y="78" width="442.3" height="22" rx="4" fill="#a7f0ba"/><text x="628.3" y="93.4" font-size="12">12</text><text x="24" y="123.4" font-size="12">Archival Research | emerging</text><rect x="180" y="108" width="331.7" height="22" rx="4" fill="#ffb3b8"/><text x="517.7" y="123.4" font-size="12">9</text><text x="24" y="153.4" font-size="12">Backlog to be read</text><rect x="180" y="138" width="294.9" height="22" rx="4" fill="#ffd7a8"/><text x="480.9" y="153.4" font-size="12">8</text><text x="24" y="183.4" font-size="12">Archer</text><rect x="180" y="168" width="258.0" height="22" rx="4" fill="#e8daff"/><text x="444.0" y="183.4" font-size="12">7</text><text x="24" y="213.4" font-size="12">AI/ML/CE/RAG/NLP</text><rect x="180" y="198" width="184.3" height="22" rx="4" fill="#b3e6ff"/><text x="370.3" y="213.4" font-size="12">5</text><text x="24" y="243.4" font-size="12">Theoretical framework</text><rect x="180" y="228" width="147.4" height="22" rx="4" fill="#f1c21b"/><text x="333.4" y="243.4" font-size="12">4</text><text x="24" y="273.4" font-size="12">Thesis</text><rect x="180" y="258" width="147.4" height="22" rx="4" fill="#8a3ffc"/><text x="333.4" y="273.4" font-size="12">4</text><text x="24" y="303.4" font-size="12">Reviewed</text><rect x="180" y="288" width="110.6" height="22" rx="4" fill="#33b1ff"/><text x="296.6" y="303.4" font-size="12">3</text><text x="24" y="333.4" font-size="12">Critical librarianship</text><rect x="180" y="318" width="73.7" height="22" rx="4" fill="#fa4d56"/><text x="259.7" y="333.4" font-size="12">2</text><text x="24" y="363.4" font-size="12">Not applicable</text><rect x="180" y="348" width="73.7" height="22" rx="4" fill="#6fdc8c"/><text x="259.7" y="363.4" font-size="12">2</text><text x="24" y="393.4" font-size="12">Archival Research | foundational</text><rect x="180" y="378" width="36.9" height="22" rx="4" fill="#ff832b"/><text x="222.9" y="393.4" font-size="12">1</text><text x="24" y="423.4" font-size="12">Other</text><rect x="180" y="408" width="73.7" height="22" rx="4" fill="#78a9ff"/><text x="259.7" y="423.4" font-size="12">2</text></g></svg>