<svg xmlns="http://www.w3.org/2000/svg" width="720" height="420" viewBox="0 0 720 420" role="img" aria-label="Paper types"><title>Paper types</title><rect x="0" y="0" width="720" height="420" fill="none" /><g font-family="IBM Plex Sans, system-ui" fill="#f4f4f4"><text x="24" y="28" font-size="18" font-weight="600">Paper types</text><text x="24" y="63.4" font-size="12">Theoretical paper</text><rect x="180" y="48" width="516.0" height="22" rx="4" fill="#78a9ff"/><text x="702.0" y="63.4" font-size="12">19</text><text x="24" y="93.4" font-size="12">Consciousness-raising paper</text><rect x="180" y="78" width="244.4" height="22" rx="4" fill="#a7f0ba"/><text x="430.4" y="93.4" font-size="12">9</text><text x="24" y="123.4" font-size="12">Methods | tutorial paper</text><rect x="180" y="108" width="162.9" height="22" rx="4" fill="#ffb3b8"/><text x="348.9" y="123.4" font-size="12">6</text><text x="24" y="153.4" font-size="12">Methods | method introduction paper</text><rect x="180" y="138" width="135.8" height="22" rx="4" fill="#ffd7a8"/><text x="321.8" y="153.4" font-size="12">5</text><text x="24" y="183.4" font-size="12">Agenda setting paper</text><rect x="180" y="168" width="81.5" height="22" rx="4" fill="#e8daff"/><text x="267.5" y="183.4" font-size="12">3</text><text x="24" y="213.4" font-size="12">Data driven | artefact paper</text><rect x="180" y="198" width="81.5" height="22" rx="4" fill="#b3e6ff"/><text x="267.5" y="213.4" font-size="12">3</text><text x="24" y="243.4" font-size="12">PhD thesis</text><rect x="180" y="228" width="81.5" height="22" rx="4" fill="#f1c21b"/><text x="267.5" y="243.4" font-size="12">3</text><text x="24" y="273.4" font-size="12">Position paper</text><rect x="180" y="258" width="81.5" height="22" rx="4" fill="#8a3ffc"/><text x="267.5" y="273.4" font-size="12">3</text><text x="24" y="303.4" font-size="12">Data driven | meta-study paper</text><rect x="180" y="288" width="54.3" height="22" rx="4" fill="#33b1ff"/><text x="240.3" y="303.4" font-size="12">2</text><text x="24" y="333.4" font-size="12">Methods | demonstration of concept paper</text><rect x="180" y="318" width="54.3" height="22" rx="4" fill="#fa4d56"/><text x="240.3" y="333.4" font-size="12">2</text><text x="24" y="363.4" font-size="12">Review paper</text><rect x="180" y="348" width="27.2" height="22" rx="4" fill="#6fdc8c"/><text x="213.2" y="363.4" font-size="12">1</text></g></svg>